<svg version="1.1" xmlns="http://www.w3.org/2000/svg" width="800" height="635">
<path d="M0 0 C264 0 528 0 800 0 C800 209.55 800 419.1 800 635 C536 635 272 635 0 635 C0 425.45 0 215.9 0 0 Z " fill="#000000" transform="translate(0,0)"/>
<path d="M0 0 C25.08 0 50.16 0 76 0 C74.87905605 8.96755162 74.87905605 8.96755162 73.5625 12.5625 C72.18982181 16.36431552 71.12219622 20.07231324 70 24 C86.5 24 103 24 120 24 C118.79681224 30.01593878 117.62969325 35.66817339 115.96875 41.515625 C115.68059166 42.53890396 115.68059166 42.53890396 115.38661194 43.58285522 C114.97453485 45.04614517 114.56097287 46.50901766 114.14602661 47.97149658 C109.67441863 63.74263338 105.43485204 79.5688962 101.3125 95.43457031 C100.91825282 96.94864171 100.5237307 98.46264154 100.12890625 99.9765625 C99.94292877 100.69035568 99.75695129 101.40414886 99.56533813 102.13957214 C98.3406473 106.80326776 97.01526068 111.42247961 95.54467773 116.0144043 C94.97655517 118.08546697 94.70968164 120.05217065 94.5 122.1875 C94 126 94 126 92.671875 128.97265625 C90.35247409 134.1947598 89.1343157 139.72303836 87.75 145.25 C87.13286595 147.66928447 86.51567685 150.08855489 85.8984375 152.5078125 C85.58487305 153.74563477 85.27130859 154.98345703 84.94824219 156.25878906 C83.43787457 162.21781928 81.91068035 168.17244661 80.375 174.125 C80.08286621 175.25784424 79.79073242 176.39068848 79.48974609 177.55786133 C77.71628681 184.38482841 75.8188204 191.15732382 73.77954102 197.90893555 C72.14226462 203.38215549 70.7010171 208.89625975 69.3125 214.4375 C69.10995605 215.24243896 68.90741211 216.04737793 68.69873047 216.87670898 C67.47613989 221.82468296 66.42795514 226.78118234 65.50878906 231.79467773 C65 234 65 234 63.4375 237.625 C62.06971599 240.83631898 61.63482391 243.4937606 61.3125 246.9453125 C60.76948109 250.51566181 59.35732993 253.6632306 58 257 C57.67 257.99 57.34 258.98 57 260 C42.22743486 261.57475555 27.60522994 262.40557362 12.75 262.375 C11.23011978 262.37418427 11.23011978 262.37418427 9.67953491 262.37335205 C-69.45467398 262.18177534 -69.45467398 262.18177534 -103 251 C-102.05014011 241.18478115 -100.0204934 231.850464 -97.5625 222.3125 C-97.3572168 221.50441895 -97.15193359 220.69633789 -96.94042969 219.86376953 C-95.66392233 215.0044516 -94.03136713 210.59122001 -92 206 C-90.34480264 200.91415854 -88.99657311 195.82590698 -88.4375 190.5 C-88 187 -88 187 -86 184 C-85.60235737 182.01178687 -85.27571139 180.00875442 -85 178 C-84.47319504 174.16184955 -84.17849638 172.26774457 -82 169 C-81.66832069 167.23954829 -81.40644119 165.46549498 -81.1875 163.6875 C-80.25846363 157.50641128 -78.29766761 152.02956957 -76.09765625 146.19921875 C-75.18657161 143.5437799 -74.62697837 141.33426211 -74.375 138.5625 C-73.9533835 134.55714321 -72.57947294 131.68543686 -71 128 C-70.76761133 126.59000135 -70.58020668 125.17187746 -70.4375 123.75 C-70 120 -70 120 -68 117 C-67.60235737 115.01178687 -67.27571139 113.00875442 -67 111 C-66.47319504 107.16184955 -66.17849638 105.26774457 -64 102 C-63.58483202 99.98341096 -63.58483202 99.98341096 -63.4375 97.875 C-63 94 -63 94 -62 93 C-61.46349901 90.52488197 -61.03607886 88.03718816 -60.59765625 85.54296875 C-60 83 -60 83 -58 79 C-45.46 79 -32.92 79 -20 79 C-19.34 74.71 -18.68 70.42 -18 66 C-17.09997541 63.4606449 -16.19491012 60.92208293 -15.2109375 58.4140625 C-13.52220112 53.6529154 -12.20180505 48.810147 -10.875 43.9375 C-10.62137695 43.01525635 -10.36775391 42.0930127 -10.10644531 41.14282227 C-8.68428366 35.87077319 -7.46539295 30.60827257 -6.48291016 25.23632812 C-5.98524589 22.9316746 -5.29479292 20.78064243 -4.5 18.5625 C-2.97286485 14.23561708 -2.16411311 9.90532812 -1.4296875 5.3828125 C-1 3 -1 3 0 0 Z " fill="#00A0D6" transform="translate(388,65)"/>
<path d="M0 0 C0.495 0.99 0.495 0.99 1 2 C17.5 2 34 2 51 2 C49.79681224 8.01593878 48.62969325 13.66817339 46.96875 19.515625 C46.68059166 20.53890396 46.68059166 20.53890396 46.38661194 21.58285522 C45.97453485 23.04614517 45.56097287 24.50901766 45.14602661 25.97149658 C40.67441863 41.74263338 36.43485204 57.5688962 32.3125 73.43457031 C31.91825282 74.94864171 31.5237307 76.46264154 31.12890625 77.9765625 C30.94292877 78.69035568 30.75695129 79.40414886 30.56533813 80.13957214 C29.3406473 84.80326776 28.01526068 89.42247961 26.54467773 94.0144043 C25.97655517 96.08546697 25.70968164 98.05217065 25.5 100.1875 C25 104 25 104 23.671875 106.97265625 C21.35247409 112.1947598 20.1343157 117.72303836 18.75 123.25 C18.13286595 125.66928447 17.51567685 128.08855489 16.8984375 130.5078125 C16.58487305 131.74563477 16.27130859 132.98345703 15.94824219 134.25878906 C14.43787457 140.21781928 12.91068035 146.17244661 11.375 152.125 C11.08286621 153.25784424 10.79073242 154.39068848 10.48974609 155.55786133 C8.71628681 162.38482841 6.8188204 169.15732382 4.77954102 175.90893555 C3.14226462 181.38215549 1.7010171 186.89625975 0.3125 192.4375 C0.10995605 193.24243896 -0.09258789 194.04737793 -0.30126953 194.87670898 C-1.52386011 199.82468296 -2.57204486 204.78118234 -3.49121094 209.79467773 C-4 212 -4 212 -5.5625 215.625 C-6.93028401 218.83631898 -7.36517609 221.4937606 -7.6875 224.9453125 C-8.23051891 228.51566181 -9.64267007 231.6632306 -11 235 C-11.33 235.99 -11.66 236.98 -12 238 C-27.84123652 239.75005316 -43.44588692 240.25351926 -59.375 240.125 C-61.58723545 240.1149311 -63.79947543 240.10581229 -66.01171875 240.09765625 C-71.34124769 240.07599626 -76.6706013 240.04284036 -82 240 C-81.67128906 238.8052002 -81.34257812 237.61040039 -81.00390625 236.37939453 C-72.63920613 205.94684045 -64.43839263 175.47257751 -56.32068634 144.97332764 C-47.98880632 113.67241536 -39.64094045 82.37582462 -31.22970581 51.09613037 C-30.16318652 47.12942085 -29.09875652 43.16215997 -28.03616333 39.19439697 C-26.79331225 34.55391241 -25.54634154 29.91455523 -24.29607964 25.27606201 C-23.83781308 23.57319375 -23.38100088 21.86993335 -22.92573738 20.16625977 C-22.30426188 17.84167506 -21.67748333 15.51858472 -21.04931641 13.19580078 C-20.86973672 12.51914431 -20.69015703 11.84248783 -20.50513554 11.14532661 C-19.60026842 7.8224921 -18.55632299 5.11264598 -17 2 C-11.39 2 -5.78 2 0 2 C0 1.34 0 0.68 0 0 Z " fill="#016FB7" transform="translate(457,87)"/>
<path d="M0 0 C7.26 0 14.52 0 22 0 C22.20753906 1.49917969 22.41507812 2.99835938 22.62890625 4.54296875 C25.82925408 27.40157783 29.41822357 50.19864075 33 73 C33.33 73 33.66 73 34 73 C34.12306015 72.14444519 34.2461203 71.28889038 34.37290955 70.40740967 C35.53311091 62.34390816 36.69529373 54.28069526 37.85970211 46.21780014 C38.4582622 42.07260291 39.05605607 37.92729818 39.65209961 33.78173828 C40.22736125 29.78091923 40.80463458 25.78039516 41.38330269 21.78006744 C41.6037008 20.253963 41.82337437 18.72775374 42.04231071 17.2014389 C42.34912384 15.06337241 42.65851291 12.92569338 42.96850586 10.78808594 C43.23164833 8.96274323 43.23164833 8.96274323 43.50010681 7.1005249 C44 4 44 4 45 0 C51.27 0 57.54 0 64 0 C65.31161588 8.69224585 66.61694622 17.38537387 67.91151428 26.0801754 C68.51300531 30.11833071 69.1171432 34.15605141 69.72753906 38.19287109 C70.31750473 42.09525832 70.90024443 45.99866479 71.47817993 49.9028511 C71.6989015 51.3854105 71.92213848 52.86759785 72.14804077 54.34937668 C73.3514038 62.25405525 74.37814203 69.98413917 74 78 C74.66 78 75.32 78 76 78 C76.14586548 76.55343018 76.14586548 76.55343018 76.29467773 75.07763672 C77.69590301 61.64959352 79.5891742 48.29763611 81.51391602 34.93603516 C82.06837483 31.08418732 82.61747572 27.231601 83.16601562 23.37890625 C83.51791607 20.92183014 83.87011831 18.46479723 84.22265625 16.0078125 C84.38621109 14.85999298 84.54976593 13.71217346 84.71827698 12.52957153 C84.87191208 11.46681 85.02554718 10.40404846 85.18383789 9.30908203 C85.31770401 8.37742218 85.45157013 7.44576233 85.5894928 6.48587036 C85.94997307 4.30294341 86.46339213 2.14643148 87 0 C93.93 0 100.86 0 108 0 C107.26760095 10.98598579 106.28793513 21.80690621 103.6484375 32.515625 C101.07418298 43.47777649 99.68180193 54.67585706 98.05224609 65.80908203 C97.6146443 68.78525248 97.16718786 71.75982085 96.71875 74.734375 C96.52641785 76.08000519 96.52641785 76.08000519 96.3302002 77.45281982 C95.56432288 82.50019532 94.37981737 87.09186555 92.67889404 91.90124512 C91.67457455 95.00603069 91.26228715 98.10294598 90.8671875 101.3359375 C90.78501984 101.9819693 90.70285217 102.6280011 90.61819458 103.29360962 C90.36186605 105.31978029 90.11775897 107.34716312 89.875 109.375 C89.54332733 112.07087095 89.20573179 114.7659117 88.8671875 117.4609375 C88.72394043 118.64478027 88.58069336 119.82862305 88.43310547 121.04833984 C88 124 88 124 87 127 C79.08 127 71.16 127 63 127 C62.67386719 124.64488281 62.34773438 122.28976562 62.01171875 119.86328125 C60.99903347 112.55311383 59.98296398 105.24342063 58.9647522 97.934021 C58.3181343 93.2911156 57.67532094 88.64770681 57.03515625 84.00390625 C56.773678 82.12757064 56.51198329 80.25126517 56.25 78.375 C56.13487061 77.53106689 56.01974121 76.68713379 55.90112305 75.81762695 C55.38836551 71.78438708 55.38836551 71.78438708 54 68 C49.29771286 97.46942345 49.29771286 97.46942345 45 127 C37.08 127 29.16 127 21 127 C17.51733509 118.29333774 16.97789673 109.0230814 16.0625 99.75 C15.37916183 92.83464527 14.38844588 86.05014043 13.10791016 79.22167969 C12.07584089 73.65713892 11.35414641 68.0873816 10.70141602 62.46728516 C10.19997995 58.26953388 9.44817474 54.24198378 8.4296875 50.14453125 C7.74331759 46.71892143 7.60362958 43.25862269 7.44140625 39.7734375 C7.11013478 36.87797784 7.11013478 36.87797784 5.6015625 33.98828125 C3.13898393 28.57193592 2.64403731 22.65267451 1.8125 16.8125 C1.54663086 15.0500293 1.54663086 15.0500293 1.27539062 13.25195312 C0.61352694 8.77734574 0 4.53011179 0 0 Z " fill="#0168B0" transform="translate(409,399)"/>
<path d="M0 0 C6.27 0 12.54 0 19 0 C22.15320035 6.04363401 24.78515691 11.96809034 27.03125 18.3984375 C28.17029655 21.45732865 29.56840788 24.29820239 31.0703125 27.19140625 C33.57806803 32.06993907 35.44805779 37.18599331 37.375 42.3125 C39.27599519 47.30333028 41.40254689 52.05565922 43.88671875 56.78125 C45.06193673 59.12343882 46.02677318 61.56693294 47 64 C47.33 42.88 47.66 21.76 48 0 C54.93 0 61.86 0 69 0 C69 41.91 69 83.82 69 127 C63.39 127 57.78 127 52 127 C49.75180454 122.66419446 47.70585289 118.36652075 45.9375 113.8125 C44.9186365 111.19992785 43.94536302 108.90893837 42.5 106.5 C41.04301808 104.0716968 40.08017355 101.76223963 39.0625 99.125 C37.64207967 95.463232 36.03149444 92.20035412 34 88.8515625 C32.78029066 86.59319442 31.90640211 84.27554934 31 81.875 C29.49977771 77.97678459 27.78352114 75.1546573 25 72 C24.34 70.68 23.68 69.36 23 68 C22.67 87.47 22.34 106.94 22 127 C15.07 127 8.14 127 1 127 C0 126 0 126 -0.12304783 123.90916348 C-0.12166514 122.51679517 -0.12166514 122.51679517 -0.12025452 121.09629822 C-0.12162918 120.03474014 -0.12300385 118.97318207 -0.12442017 117.87945557 C-0.12082489 116.70485779 -0.11722961 115.53026001 -0.11352539 114.32006836 C-0.11367142 113.09097244 -0.11381744 111.86187653 -0.1139679 110.59553528 C-0.11338892 107.21551328 -0.10835964 103.83555171 -0.10139394 100.45554042 C-0.09515988 96.92678806 -0.09455656 93.39803497 -0.09336853 89.86927795 C-0.09025537 83.18276881 -0.08204218 76.49627594 -0.07201904 69.80977398 C-0.06085744 62.19925697 -0.05534733 54.5887392 -0.05032361 46.97821605 C-0.03985956 31.31880101 -0.02205994 15.65940324 0 0 Z " fill="#0167AF" transform="translate(164,399)"/>
<path d="M0 0 C12.54 0 25.08 0 38 0 C36.87500834 8.99993327 36.87500834 8.99993327 36.0585022 12.01490784 C35.874272 12.70566438 35.69004181 13.39642092 35.50022888 14.10810947 C35.29986526 14.83757251 35.09950165 15.56703554 34.89306641 16.31860352 C34.57232399 17.51194384 34.57232399 17.51194384 34.24510193 18.72939205 C33.53565177 21.36395941 32.81860574 23.9963963 32.1015625 26.62890625 C31.59337324 28.51040682 31.08568424 30.39204257 30.57846069 32.27380371 C29.4961346 36.28527226 28.41053018 40.29583302 27.32226562 44.30569458 C25.61844349 50.58380962 23.92178266 56.86384467 22.2265625 63.14428711 C20.50359846 69.52641387 18.78029499 75.90844707 17.05450439 82.28981018 C11.87622668 101.43857744 6.73806176 120.59794418 1.61522675 139.76160812 C0.79970441 142.81158722 -0.01655002 145.86137015 -0.83284569 148.91114235 C-1.58834111 151.73393314 -2.34351885 154.55680884 -3.09858322 157.37971497 C-3.60835941 159.28544754 -4.11833947 161.19112557 -4.62832642 163.09680176 C-4.92886932 164.22122681 -5.22941223 165.34565186 -5.5390625 166.50415039 C-5.79896973 167.47606827 -6.05887695 168.44798615 -6.32666016 169.44935608 C-6.90205521 171.62898041 -7.46002596 173.81137538 -8 176 C-15.11043792 176.26913745 -21.80969178 175.2357241 -28.8125 174.0625 C-29.94365234 173.88009766 -31.07480469 173.69769531 -32.24023438 173.50976562 C-40.55751427 172.14749524 -40.55751427 172.14749524 -44 171 C-43.05014011 161.18478115 -41.0204934 151.850464 -38.5625 142.3125 C-38.3572168 141.50441895 -38.15193359 140.69633789 -37.94042969 139.86376953 C-36.66392233 135.0044516 -35.03136713 130.59122001 -33 126 C-31.34480264 120.91415854 -29.99657311 115.82590698 -29.4375 110.5 C-29 107 -29 107 -27 104 C-26.60235737 102.01178687 -26.27571139 100.00875442 -26 98 C-25.47319504 94.16184955 -25.17849638 92.26774457 -23 89 C-22.66832069 87.23954829 -22.40644119 85.46549498 -22.1875 83.6875 C-21.25846363 77.50641128 -19.29766761 72.02956957 -17.09765625 66.19921875 C-16.18657161 63.5437799 -15.62697837 61.33426211 -15.375 58.5625 C-14.9533835 54.55714321 -13.57947294 51.68543686 -12 48 C-11.76761133 46.59000135 -11.58020668 45.17187746 -11.4375 43.75 C-11 40 -11 40 -9 37 C-8.60235737 35.01178687 -8.27571139 33.00875442 -8 31 C-7.47319504 27.16184955 -7.17849638 25.26774457 -5 22 C-4.58483202 19.98341096 -4.58483202 19.98341096 -4.4375 17.875 C-4 14 -4 14 -3 13 C-2.62911153 11.38315806 -2.30256403 9.75600923 -2 8.125 C-1.47337663 5.30262787 -0.9099394 2.72981821 0 0 Z " fill="#57C5DA" transform="translate(329,145)"/>
<path d="M0 0 C14.85 0 29.7 0 45 0 C43.66808772 7.32551752 42.36805093 13.74927032 40.125 20.71875 C37.9397206 27.6160381 36.11448473 34.51628043 34.49829102 41.56225586 C30.97121246 56.89998928 26.52135886 72.0269518 22.265625 87.17578125 C21.965354 88.24538086 21.66508301 89.31498047 21.35571289 90.41699219 C20.74608565 92.58837388 20.13590146 94.7595993 19.52514648 96.93066406 C18.24135433 101.50701796 16.96491117 106.08325357 15.76953125 110.68359375 C15.59301025 111.36268799 15.41648926 112.04178223 15.23461914 112.74145508 C14.79137002 114.46420923 14.35620423 116.18903793 13.921875 117.9140625 C13.61765625 118.93242187 13.3134375 119.95078125 13 121 C12.70351563 122.22976563 12.40703125 123.45953125 12.1015625 124.7265625 C9.70016743 128.46702545 9.09890396 128.63476694 4.9765625 129.671875 C2.86520016 130.06402597 0.74719083 130.42145868 -1.375 130.75 C-2.48157959 130.94553467 -3.58815918 131.14106934 -4.72827148 131.3425293 C-8.14712993 131.93404336 -11.57027827 132.47541955 -15 133 C-16.06653809 133.16516113 -17.13307617 133.33032227 -18.23193359 133.50048828 C-24.14619856 134.40355069 -30.06667195 135.23259795 -36 136 C-35.58119452 130.94127064 -34.9854552 126.69938676 -33 122 C-32.12520823 118.64436524 -31.38567895 115.25807431 -30.625 111.875 C-28.0254646 100.58605485 -28.0254646 100.58605485 -25.9375 95.3125 C-24.2200627 90.93712401 -23.15437338 86.52623154 -22.1875 81.9375 C-19.63399646 69.82633601 -16.30053703 57.92517892 -13 46 C-12.79342773 45.25137695 -12.58685547 44.50275391 -12.37402344 43.73144531 C-10.91282599 38.45681424 -9.39657752 33.20599495 -7.71875 27.99609375 C-5.51965128 21.15755973 -3.47982361 14.46909884 -2.45703125 7.33203125 C-2 5 -2 5 0 0 Z " fill="#009FD5" transform="translate(505,187)"/>
<path d="M0 0 C2.90758528 2.12842844 5.46153379 4.44924097 8 7 C8.763125 7.66 9.52625 8.32 10.3125 9 C16.77489149 16.65913065 17.30353034 26.97627546 17.125 36.5 C17.08375 39.635 17.0425 42.77 17 46 C9.74 46 2.48 46 -5 46 C-5.375 38.4375 -5.375 38.4375 -5.47802734 36.09936523 C-5.79242339 30.51776846 -6.29925712 25.0847816 -9.9375 20.625 C-13.76995266 17.60549184 -17.27563711 17.7556364 -22 18 C-25.42947745 19.0132547 -27.8011149 20.14144938 -30 23 C-31.03564927 26.19206965 -31.13418162 29.15788912 -31.125 32.5 C-31.12757813 33.4384375 -31.13015625 34.376875 -31.1328125 35.34375 C-30.9779206 38.76564775 -30.9779206 38.76564775 -30 42 C-28.16926803 43.14751132 -28.16926803 43.14751132 -26 44 C-24.67571793 44.87832261 -23.36397247 45.77571986 -22.0625 46.6875 C-11.69726629 53.82361039 -11.69726629 53.82361039 0 58 C0 58.66 0 59.32 0 60 C0.57621094 60.26039063 1.15242187 60.52078125 1.74609375 60.7890625 C4.16230095 62.08719808 6.00794479 63.5619243 8.0625 65.375 C8.73410156 65.96023438 9.40570312 66.54546875 10.09765625 67.1484375 C14.76304108 71.68928434 16.77512654 75.99397097 17.265625 82.55078125 C17.19435737 99.70846395 17.19435737 99.70846395 13 106 C12.34 106 11.68 106 11 106 C10.835 106.680625 10.67 107.36125 10.5 108.0625 C6.79776549 115.31270925 -0.47463398 119.48704115 -8 122 C-16.78392262 124.14971202 -28.13902865 124.41889995 -36.15625 119.7421875 C-40.49210407 116.65208255 -43.71280146 113.15733933 -47 109 C-47.66 108.67 -48.32 108.34 -49 108 C-49.78125 106.328125 -49.78125 106.328125 -50.5 104.25 C-51.28229595 102.02215718 -52.04497157 99.90827742 -53.0859375 97.78515625 C-54.36568281 93.88576136 -54.2130266 90.25814604 -54.125 86.1875 C-54.08375 83.485625 -54.0425 80.78375 -54 78 C-46.74 78 -39.48 78 -32 78 C-31.896875 80.02125 -31.79375 82.0425 -31.6875 84.125 C-31.2389677 89.93696786 -30.34050355 93.93364409 -26.765625 98.6171875 C-23.54063025 101.14295772 -19.82546778 100.51691951 -15.890625 100.421875 C-12.76005497 100.19179868 -12.76005497 100.19179868 -9.875 97.75 C-9.25625 96.8425 -8.6375 95.935 -8 95 C-7.566875 94.38125 -7.13375 93.7625 -6.6875 93.125 C-5.62954989 89.85497238 -5.58738643 87.41879817 -6 84 C-7.78476241 81.02760759 -9.85208055 78.57395973 -13 77 C-13 76.34 -13 75.68 -13 75 C-14.423125 74.7834375 -14.423125 74.7834375 -15.875 74.5625 C-19 74 -19 74 -21 73 C-21 72.34 -21 71.68 -21 71 C-22.00804687 70.75636719 -23.01609375 70.51273437 -24.0546875 70.26171875 C-28.18740301 69.07514895 -31.54322917 67.15412555 -35.125 64.8125 C-35.74101074 64.41393799 -36.35702148 64.01537598 -36.99169922 63.60473633 C-41.57860377 60.52650392 -44.2298004 57.70933932 -47 53 C-47.99386719 52.07960938 -47.99386719 52.07960938 -49.0078125 51.140625 C-54.69260551 45.03225918 -54.32011986 34.77806089 -54.203125 26.91015625 C-54.01324853 24.18981066 -53.60640255 21.65545635 -53 19 C-52.34 19 -51.68 19 -51 19 C-51.020625 18.05125 -51.04125 17.1025 -51.0625 16.125 C-50.08895761 9.09545127 -43.2472747 3.90529812 -38.125 -0.4375 C-25.41582649 -6.79208676 -12.42965334 -7.02240302 0 0 Z " fill="#0168B0" transform="translate(620,403)"/>
<path d="M0 0 C20.13 0 40.26 0 61 0 C61 7.26 61 14.52 61 22 C48.46 22 35.92 22 23 22 C23 31.24 23 40.48 23 50 C26.98900391 49.98259766 26.98900391 49.98259766 31.05859375 49.96484375 C33.62345256 49.95705348 36.18831007 49.95097655 38.75317383 49.94506836 C40.54094021 49.94002782 42.32870245 49.93319546 44.11645508 49.92456055 C46.68051168 49.9124827 49.24451397 49.90676906 51.80859375 49.90234375 C52.6127623 49.89718246 53.41693085 49.89202118 54.24546814 49.88670349 C56.16401715 49.88650785 58.08245368 49.93798017 60 50 C61 51 61 51 61.11352539 53.13305664 C61.10828857 54.04949951 61.10305176 54.96594238 61.09765625 55.91015625 C61.09515869 56.800979 61.09266113 57.69180176 61.09008789 58.60961914 C61.08098389 59.74906982 61.07187988 60.88852051 61.0625 62.0625 C61.041875 65.671875 61.02125 69.28125 61 73 C48.46 73 35.92 73 23 73 C23 83.23 23 93.46 23 104 C26.98900391 103.98259766 26.98900391 103.98259766 31.05859375 103.96484375 C33.62345256 103.95705348 36.18831007 103.95097655 38.75317383 103.94506836 C40.54094021 103.94002782 42.32870245 103.93319546 44.11645508 103.92456055 C46.68051168 103.9124827 49.24451397 103.90676906 51.80859375 103.90234375 C52.6127623 103.89718246 53.41693085 103.89202118 54.24546814 103.88670349 C56.16401715 103.88650785 58.08245368 103.93798017 60 104 C61.62200515 105.62200515 61.1299075 107.42023031 61.1328125 109.65625 C61.13474609 111.06583984 61.13474609 111.06583984 61.13671875 112.50390625 C61.13285156 113.49261719 61.12898438 114.48132813 61.125 115.5 C61.13080078 116.98306641 61.13080078 116.98306641 61.13671875 118.49609375 C61.13542969 119.43582031 61.13414062 120.37554688 61.1328125 121.34375 C61.13168457 122.21193359 61.13055664 123.08011719 61.12939453 123.97460938 C61 126 61 126 60 127 C58.16427369 127.09905152 56.32472425 127.12799207 54.48632812 127.12939453 C53.30840698 127.13254669 52.13048584 127.13569885 50.91687012 127.13894653 C49.63461548 127.1369223 48.35236084 127.13489807 47.03125 127.1328125 C45.72546997 127.13376923 44.41968994 127.13472595 43.07434082 127.13571167 C40.30687278 127.13718833 37.53943696 127.13503511 34.77197266 127.13037109 C31.21737351 127.12467381 27.66284986 127.12795298 24.10825348 127.13394356 C20.72841286 127.13841747 17.34859277 127.13528886 13.96875 127.1328125 C12.68649536 127.13483673 11.40424072 127.13686096 10.08312988 127.13894653 C8.31624817 127.13421829 8.31624817 127.13421829 6.51367188 127.12939453 C5.47078003 127.12859894 4.42788818 127.12780334 3.35339355 127.12698364 C1 127 1 127 0 126 C-0.09605864 124.36776544 -0.12187821 122.7313561 -0.12025452 121.09629822 C-0.12162918 120.03474014 -0.12300385 118.97318207 -0.12442017 117.87945557 C-0.12082489 116.70485779 -0.11722961 115.53026001 -0.11352539 114.32006836 C-0.11367142 113.09097244 -0.11381744 111.86187653 -0.1139679 110.59553528 C-0.11338892 107.21551328 -0.10835964 103.83555171 -0.10139394 100.45554042 C-0.09515988 96.92678806 -0.09455656 93.39803497 -0.09336853 89.86927795 C-0.09025537 83.18276881 -0.08204218 76.49627594 -0.07201904 69.80977398 C-0.05877206 60.7773445 -0.05335787 51.7449106 -0.04751682 42.71247387 C-0.03810228 28.47497038 -0.01818327 14.23750124 0 0 Z " fill="#016BB5" transform="translate(293,399)"/>
<path d="M0 0 C-0.14148989 1.6045556 -0.28835686 3.20863767 -0.4375 4.8125 C-0.51871094 5.70582031 -0.59992188 6.59914063 -0.68359375 7.51953125 C-1 10 -1 10 -2 13 C-4.86518584 13.88532726 -7.64327918 14.59887373 -10.5625 15.25 C-17.26261512 16.87594543 -23.61694337 18.79498055 -29.9375 21.5625 C-30.59242432 21.84319336 -31.24734863 22.12388672 -31.92211914 22.41308594 C-35.62002867 24.08904336 -38.46807613 25.79749234 -41 29 C-41.5640591 32.48365001 -41.5640591 32.48365001 -40 36 C-30.64089167 45.67107861 -13.11757375 48.8265607 -0.41357422 51.484375 C1.37538891 51.86656093 3.15961168 52.27108306 4.94091797 52.6875 C14.32430915 54.82725884 23.7197245 56.14894764 33.26708984 57.30761719 C35.86536783 57.62382776 38.46196111 57.95183011 41.05859375 58.28125 C42.76553775 58.49289238 44.47256657 58.70385199 46.1796875 58.9140625 C47.30236526 59.05625717 47.30236526 59.05625717 48.44772339 59.20132446 C61.75822607 60.79528705 75.09526032 61.16825861 88.484375 61.203125 C89.24117805 61.20595238 89.99798111 61.20877975 90.77771759 61.21169281 C94.80038272 61.22655216 98.82301336 61.23585917 102.84570312 61.24023438 C106.07954492 61.24457036 109.31311257 61.25828974 112.546875 61.28125 C141.34775565 61.4814418 170.45759704 60.77840095 198.83935547 55.39599609 C201.17008343 54.96882765 203.50622646 54.60201193 205.84765625 54.23828125 C216.25129908 52.54316034 226.16938807 49.90750125 236.1875 46.625 C237.30962891 46.26196777 238.43175781 45.89893555 239.58789062 45.52490234 C246.40727659 43.20659645 253.38675902 40.64492908 259 36 C260.13152234 33.39574969 260.11585553 31.89638829 260 29 C253.63372259 24.42571179 247.2010942 21.0992051 240 18 C241.485 12.555 241.485 12.555 243 7 C254.50726697 10.47044559 265.24280471 15.79212835 272.0625 26.125 C273.43439328 30.33213939 273.95581454 33.02320175 271.96875 37.1328125 C265.30563908 48.05291095 255.59490627 52.50401594 244 57 C242.72769531 57.53753906 242.72769531 57.53753906 241.4296875 58.0859375 C201.17720753 74.26458701 151.45463247 74.25558445 108.75904083 74.30962753 C106.72539935 74.31244745 104.69177733 74.31796777 102.65814209 74.32363892 C85.01488413 74.34911881 67.56348201 73.69435398 50 72 C49.18675262 71.9221225 48.37350525 71.844245 47.53561401 71.76400757 C42.80732458 71.30070174 38.09079035 70.76602487 33.375 70.1875 C32.69063873 70.10385193 32.00627747 70.02020386 31.30117798 69.934021 C-33.21980657 61.95661143 -33.21980657 61.95661143 -51 41 C-51.76171875 38.73046875 -51.76171875 38.73046875 -52 37 C-52.66 37 -53.32 37 -54 37 C-54.53089447 32.41576837 -54.98886976 28.00228594 -52.8984375 23.76953125 C-42.21975157 10.59213802 -16.8875264 0 0 0 Z " fill="#00B2D0" transform="translate(290,270)"/>
<path d="M0 0 C5.61 0 11.22 0 17 0 C16.39028162 4.87774704 15.76145468 9.66613257 14.9375 14.5 C14.76089844 15.5415625 14.58429688 16.583125 14.40234375 17.65625 C14.26957031 18.4296875 14.13679688 19.203125 14 20 C13.34 20 12.68 20 12 20 C11.67 23.63 11.34 27.26 11 31 C10.34 31 9.68 31 9 31 C8.34 35.95 7.68 40.9 7 46 C6.34 46 5.68 46 5 46 C4.8453125 47.9490625 4.8453125 47.9490625 4.6875 49.9375 C4.32491107 53.2629585 3.70196389 56.170342 2.5625 59.3125 C0.60052264 64.73679034 -0.18144749 70.30865257 -1 76 C-1.66 76 -2.32 76 -3 76 C-3.33 79.63 -3.66 83.26 -4 87 C-4.66 87 -5.32 87 -6 87 C-6.66 91.95 -7.32 96.9 -8 102 C-8.66 102 -9.32 102 -10 102 C-10.33 105.63 -10.66 109.26 -11 113 C-11.66 113 -12.32 113 -13 113 C-13.66 117.95 -14.32 122.9 -15 128 C-15.66 128 -16.32 128 -17 128 C-17.10957031 128.97839844 -17.21914063 129.95679688 -17.33203125 130.96484375 C-18.10726255 137.50585781 -18.96067759 143.75209122 -21.27734375 149.95703125 C-22.29925197 152.84599342 -22.8998324 155.78606977 -23.52734375 158.78125 C-24.25812344 162.21168689 -25.13486317 165.60124817 -26 169 C-26.66 169 -27.32 169 -28 169 C-28.33 171.97 -28.66 174.94 -29 178 C-31.06242617 178.02717692 -33.12495703 178.0464758 -35.1875 178.0625 C-36.33605469 178.07410156 -37.48460937 178.08570313 -38.66796875 178.09765625 C-41.60470675 178.01158538 -44.14272308 177.61577407 -47 177 C-41.72065869 155.49880002 -36.13311469 134.09821865 -30.31361389 112.73751068 C-28.57213534 106.34024123 -26.83910787 99.94067176 -25.10456467 93.54151917 C-24.65707126 91.89078187 -24.20946221 90.24007591 -23.76173782 88.58940125 C-18.76166965 70.15490397 -13.81766755 51.70550754 -8.88553238 33.25273514 C-8.24982515 30.87434583 -7.61398727 28.49599149 -6.9781189 26.11764526 C-4.65073141 17.41212321 -2.32473767 8.70623008 0 0 Z " fill="#00B8D7" transform="translate(367,145)"/>
<path d="M0 0 C20.13 0 40.26 0 61 0 C61 7.26 61 14.52 61 22 C48.46 22 35.92 22 23 22 C23 31.24 23 40.48 23 50 C26.98900391 49.98259766 26.98900391 49.98259766 31.05859375 49.96484375 C33.62345256 49.95705348 36.18831007 49.95097655 38.75317383 49.94506836 C40.54094021 49.94002782 42.32870245 49.93319546 44.11645508 49.92456055 C46.68051168 49.9124827 49.24451397 49.90676906 51.80859375 49.90234375 C52.6127623 49.89718246 53.41693085 49.89202118 54.24546814 49.88670349 C56.16401715 49.88650785 58.08245368 49.93798017 60 50 C61 51 61 51 61.11352539 53.13305664 C61.10828857 54.04949951 61.10305176 54.96594238 61.09765625 55.91015625 C61.09515869 56.800979 61.09266113 57.69180176 61.09008789 58.60961914 C61.08098389 59.74906982 61.07187988 60.88852051 61.0625 62.0625 C61.041875 65.671875 61.02125 69.28125 61 73 C48.46 73 35.92 73 23 73 C23 83.23 23 93.46 23 104 C26.98900391 103.98259766 26.98900391 103.98259766 31.05859375 103.96484375 C33.62345256 103.95705348 36.18831007 103.95097655 38.75317383 103.94506836 C40.54094021 103.94002782 42.32870245 103.93319546 44.11645508 103.92456055 C46.68051168 103.9124827 49.24451397 103.90676906 51.80859375 103.90234375 C52.6127623 103.89718246 53.41693085 103.89202118 54.24546814 103.88670349 C56.16401715 103.88650785 58.08245368 103.93798017 60 104 C61.62200515 105.62200515 61.1299075 107.42023031 61.1328125 109.65625 C61.13474609 111.06583984 61.13474609 111.06583984 61.13671875 112.50390625 C61.13285156 113.49261719 61.12898438 114.48132813 61.125 115.5 C61.13080078 116.98306641 61.13080078 116.98306641 61.13671875 118.49609375 C61.13542969 119.43582031 61.13414062 120.37554688 61.1328125 121.34375 C61.13168457 122.21193359 61.13055664 123.08011719 61.12939453 123.97460938 C61 126 61 126 60 127 C58.16427369 127.09905152 56.32472425 127.12799207 54.48632812 127.12939453 C53.30840698 127.13254669 52.13048584 127.13569885 50.91687012 127.13894653 C49.63461548 127.1369223 48.35236084 127.13489807 47.03125 127.1328125 C45.72546997 127.13376923 44.41968994 127.13472595 43.07434082 127.13571167 C40.30687278 127.13718833 37.53943696 127.13503511 34.77197266 127.13037109 C31.21737351 127.12467381 27.66284986 127.12795298 24.10825348 127.13394356 C20.72841286 127.13841747 17.34859277 127.13528886 13.96875 127.1328125 C12.68649536 127.13483673 11.40424072 127.13686096 10.08312988 127.13894653 C8.31624817 127.13421829 8.31624817 127.13421829 6.51367188 127.12939453 C5.47078003 127.12859894 4.42788818 127.12780334 3.35339355 127.12698364 C1 127 1 127 0 126 C-0.09605864 124.36776544 -0.12187821 122.7313561 -0.12025452 121.09629822 C-0.12162918 120.03474014 -0.12300385 118.97318207 -0.12442017 117.87945557 C-0.12082489 116.70485779 -0.11722961 115.53026001 -0.11352539 114.32006836 C-0.11367142 113.09097244 -0.11381744 111.86187653 -0.1139679 110.59553528 C-0.11338892 107.21551328 -0.10835964 103.83555171 -0.10139394 100.45554042 C-0.09515988 96.92678806 -0.09455656 93.39803497 -0.09336853 89.86927795 C-0.09025537 83.18276881 -0.08204218 76.49627594 -0.07201904 69.80977398 C-0.05877206 60.7773445 -0.05335787 51.7449106 -0.04751682 42.71247387 C-0.03810228 28.47497038 -0.01818327 14.23750124 0 0 Z M2 1 C2 42.25 2 83.5 2 126 C20.81 126 39.62 126 59 126 C59 119.4 59 112.8 59 106 C46.79 106 34.58 106 22 106 C22 94.78 22 83.56 22 72 C34.54 72 47.08 72 60 72 C60 65.07 60 58.14 60 51 C47.46 51 34.92 51 22 51 C22 41.1 22 31.2 22 21 C34.21 21 46.42 21 59 21 C59 14.4 59 7.8 59 1 C40.19 1 21.38 1 2 1 Z " fill="#004371" transform="translate(293,399)"/>
<path d="M0 0 C0.33 0 0.66 0 1 0 C1 7.26 1 14.52 1 22 C-11.54 22 -24.08 22 -37 22 C-37 32.23 -37 42.46 -37 53 C-33.01099609 52.98259766 -33.01099609 52.98259766 -28.94140625 52.96484375 C-26.37654744 52.95705348 -23.81168993 52.95097655 -21.24682617 52.94506836 C-19.45905979 52.94002782 -17.67129755 52.93319546 -15.88354492 52.92456055 C-13.31948832 52.9124827 -10.75548603 52.90676906 -8.19140625 52.90234375 C-7.3872377 52.89718246 -6.58306915 52.89202118 -5.75453186 52.88670349 C-3.83598285 52.88650785 -1.91754632 52.93798017 0 53 C1.62200515 54.62200515 1.1299075 56.42023031 1.1328125 58.65625 C1.13474609 60.06583984 1.13474609 60.06583984 1.13671875 61.50390625 C1.13285156 62.49261719 1.12898438 63.48132813 1.125 64.5 C1.13080078 65.98306641 1.13080078 65.98306641 1.13671875 67.49609375 C1.13542969 68.43582031 1.13414062 69.37554688 1.1328125 70.34375 C1.13168457 71.21193359 1.13055664 72.08011719 1.12939453 72.97460938 C1 75 1 75 0 76 C-1.84118029 76.09381302 -3.68597641 76.11743954 -5.52954102 76.11352539 C-6.71068985 76.11344986 -7.89183868 76.11337433 -9.10877991 76.11329651 C-10.3941716 76.10813522 -11.67956329 76.10297394 -13.00390625 76.09765625 C-14.9661338 76.09553383 -14.9661338 76.09553383 -16.96800232 76.09336853 C-20.45162859 76.0895441 -23.93521339 76.07971446 -27.41882324 76.06866455 C-30.97126708 76.05844882 -34.52371759 76.05387056 -38.07617188 76.04882812 C-45.05079832 76.03809212 -52.02539717 76.0210166 -59 76 C-59 75.67 -59 75.34 -59 75 C-39.86 75 -20.72 75 -1 75 C-1 68.4 -1 61.8 -1 55 C-13.21 55 -25.42 55 -38 55 C-38 43.78 -38 32.56 -38 21 C-25.46 21 -12.92 21 0 21 C0 14.07 0 7.14 0 0 Z " fill="#013C67" transform="translate(353,450)"/>
<path d="M0 0 C6.93 0 13.86 0 21 0 C21 41.91 21 83.82 21 127 C15.39 127 9.78 127 4 127 C4 126.67 4 126.34 4 126 C9.28 126 14.56 126 20 126 C20 84.75 20 43.5 20 1 C13.73 1 7.46 1 1 1 C1 23.44 1 45.88 1 69 C0.01 68.67 -0.98 68.34 -2 68 C-2.495 65.525 -2.495 65.525 -3 63 C-2.34 63.33 -1.68 63.66 -1 64 C-0.67 42.88 -0.34 21.76 0 0 Z " fill="#014A7D" transform="translate(212,399)"/>
<path d="M0 0 C0.33 0 0.66 0 1 0 C1 22.77 1 45.54 1 69 C0.01 68.67 -0.98 68.34 -2 68 C-2.495 65.525 -2.495 65.525 -3 63 C-2.34 63.33 -1.68 63.66 -1 64 C-0.67 42.88 -0.34 21.76 0 0 Z " fill="#003459" transform="translate(212,399)"/>
<path d="M0 0 C0.33 0 0.66 0 1 0 C2.65 10.23 4.3 20.46 6 31 C6.33 31 6.66 31 7 31 C7.33 29.02 7.66 27.04 8 25 C8.33 25 8.66 25 9 25 C9.19392201 30.52677733 8.7479503 34.75614911 7 40 C6.34 40 5.68 40 5 40 C4.27988654 35.59045417 3.56813112 31.17966076 2.86376953 26.76757812 C2.6234963 25.26982126 2.38102487 23.77241519 2.13623047 22.27539062 C1.78280886 20.11158485 1.43756536 17.94660041 1.09375 15.78125 C0.88427734 14.48251953 0.67480469 13.18378906 0.45898438 11.84570312 C-0.02091864 7.82472847 -0.0786608 4.04316518 0 0 Z " fill="#00375E" transform="translate(436,441)"/>
<path d="M0 0 C-7.10439266 4.53891753 -13.6684197 4.61944835 -22 4 C-24.41722728 3.25623776 -25.90188146 2.43870986 -28 1 C-24.25 -0.125 -24.25 -0.125 -22 1 C-16.2734708 1.37883193 -4.43581662 -2.21790831 0 0 Z " fill="#002844" transform="translate(617,524)"/>
<path d="M0 0 C1.1852306 3.52984566 0.83595405 6.21675777 0.22265625 9.859375 C0.03896484 10.97441406 -0.14472656 12.08945312 -0.33398438 13.23828125 C-0.53314453 14.39714844 -0.73230469 15.55601562 -0.9375 16.75 C-1.13279297 17.92433594 -1.32808594 19.09867187 -1.52929688 20.30859375 C-2.01236629 23.20701025 -2.50285869 26.10396967 -3 29 C-3.66 29 -4.32 29 -5 29 C-5 26.69 -5 24.38 -5 22 C-4.67 22 -4.34 22 -4 22 C-3.87153687 21.05362671 -3.87153687 21.05362671 -3.74047852 20.08813477 C-3.35216286 17.24564319 -2.95741919 14.40408131 -2.5625 11.5625 C-2.36043945 10.07266602 -2.36043945 10.07266602 -2.15429688 8.55273438 C-1.95610352 7.13637695 -1.95610352 7.13637695 -1.75390625 5.69140625 C-1.63345947 4.81685791 -1.5130127 3.94230957 -1.38891602 3.04125977 C-1 1 -1 1 0 0 Z " fill="#001A2C" transform="translate(488,448)"/>
<path d="M0 0 C0.66 0.33 1.32 0.66 2 1 C1.28972656 1.60585938 0.57945312 2.21171875 -0.15234375 2.8359375 C-6.67377635 8.59471984 -6.67377635 8.59471984 -9.125 16.625 C-9.12948899 18.08392154 -9.10526443 19.54487402 -9 21 C-9.33 21 -9.66 21 -10 21 C-11.06640523 11.79167546 -11.06640523 11.79167546 -8.546875 7.55859375 C-5.89818087 4.53707922 -3.34983104 2.23322069 0 0 Z " fill="#00869D" transform="translate(246,286)"/>
<path d="M0 0 C0.99 0 1.98 0 3 0 C4.20568053 4.67201205 4.09382426 9.21496292 4 14 C3.67 14 3.34 14 3 14 C2.34 11.36 1.68 8.72 1 6 C0.67 7.98 0.34 9.96 0 12 C-0.33 12 -0.66 12 -1 12 C-1.14285714 3.42857143 -1.14285714 3.42857143 0 0 Z " fill="#014779" transform="translate(462,461)"/>
<path d="M0 0 C0.33 0 0.66 0 1 0 C1 7.59 1 15.18 1 23 C0.01 22.67 -0.98 22.34 -2 22 C-2.33 20.35 -2.66 18.7 -3 17 C-2.34 17.33 -1.68 17.66 -1 18 C-0.505 9.09 -0.505 9.09 0 0 Z " fill="#002640" transform="translate(212,445)"/>
<path d="M0 0 C-0.11442461 1.60495567 -0.24194694 3.20898119 -0.375 4.8125 C-0.44460938 5.70582031 -0.51421875 6.59914063 -0.5859375 7.51953125 C-1 10 -1 10 -3 13 C-2.67 9.37 -2.34 5.74 -2 2 C-3.65 2 -5.3 2 -7 2 C-4 0 -4 0 0 0 Z " fill="#006272" transform="translate(290,270)"/>
<path d="M0 0 C0.33 0 0.66 0 1 0 C1.19392201 5.52677733 0.7479503 9.75614911 -1 15 C-1.66 15 -2.32 15 -3 15 C-3 13.68 -3 12.36 -3 11 C-2.34 11 -1.68 11 -1 11 C-0.67 7.37 -0.34 3.74 0 0 Z " fill="#014C81" transform="translate(444,466)"/>
<path d="M0 0 C0.66 0.33 1.32 0.66 2 1 C1.07038578 2.15224028 0.1309875 3.29659176 -0.8125 4.4375 C-1.59560547 5.39462891 -1.59560547 5.39462891 -2.39453125 6.37109375 C-4 8 -4 8 -7 9 C-5.44499019 5.18315774 -2.96404505 2.80804268 0 0 Z " fill="#004C81" transform="translate(579,405)"/>
<path d="M0 0 C0.33 0 0.66 0 1 0 C1 2.31 1 4.62 1 7 C2.98 7 4.96 7 7 7 C7 7.33 7 7.66 7 8 C4.36 8.33 1.72 8.66 -1 9 C-0.67 6.03 -0.34 3.06 0 0 Z " fill="#00698D" transform="translate(470,314)"/>
</svg>